:FULLY-SPECIFIED
:FORCE-ALL-JOINTS-BE-3DOF
:DEGREES
544
root 7.47903 14.9658 -3.83445 -176.501 56.7491 -180.411
lfemur -28.0819 -5.54994 -20.2642
ltibia 73.6075 0 0
lfoot -35.2865 1.65746 0
ltoes -5.94267 0 0
rfemur -47.7183 -5.06342 -1.00537
rtibia 51.5737 0 0
rfoot 0.871057 5.50398 0
rtoes -40.8509 0 0
lowerback 11.4848 0.965434 0.409455
upperback 5.42899 2.10937 6.60221
thorax -0.982 1.25609 6.41015
lowerneck -4.30628 -15.9787 -6.25719
upperneck 12.3023 -21.5823 6.51861
head 5.83784 -10.3687 1.37274
lclavicle 6.76838e-14 4.09594e-14 0
lhumerus -43.0003 -19.7658 106.021
lradius 59.0329 0 0
lwrist 23.5915 0 0
lhand -22.1747 -5.14845 0
lfingers 7.12502 0 0
lthumb 4.24008 24.7886 0
rclavicle 6.76838e-14 4.09594e-14 0
rhumerus 15.2141 11.7708 -83.4472
rradius 137.695 0 0
rwrist -50.0993 0 0
rhand -30.1469 -24.6099 0
rfingers 7.12502 0 0
rthumb -3.45917 -774.549 0
545
root 7.46709 15.0101 -3.82633 -176.216 57.3262 -180.226
lfemur -27.7343 -5.46814 -20.2295
ltibia 72.7014 0 0
lfoot -35.2019 1.90853 0
ltoes -5.56174 0 0
rfemur -47.8453 -5.28921 -0.536483
rtibia 51.3624 0 0
rfoot 1.15577 5.47349 0
rtoes -40.5687 0 0
lowerback 11.3399 0.911878 0.328944
upperback 5.33402 2.01272 6.50616
thorax -0.990993 1.20219 6.36467
lowerneck -4.33644 -15.9002 -6.1878
upperneck 12.2325 -21.4774 6.475
head 5.80291 -10.3205 1.36273
lclavicle 6.57056e-14 3.93303e-14 0
lhumerus -42.9534 -19.6553 105.639
lradius 58.9152 0 0
lwrist 23.5477 0 0
lhand -22.1473 -5.1247 0
lfingers 7.12502 0 0
lthumb 4.26651 24.8117 0
rclavicle 6.57056e-14 3.93303e-14 0
rhumerus 15.6427 11.891 -83.1403
rradius 137.573 0 0
rwrist -49.9548 0 0
rhand -30.014 -24.5118 0
rfingers 7.12502 0 0
rthumb -3.33085 -774.453 0
546
root 7.45515 15.0544 -3.81822 -175.931 57.9033 -180.042
lfemur -27.3867 -5.38634 -20.1948
ltibia 71.7952 0 0
lfoot -35.1173 2.15961 0
ltoes -5.18081 0 0
rfemur -47.9723 -5.51501 -0.0675968
rtibia 51.1512 0 0
rfoot 1.44048 5.44301 0
rtoes -40.2864 0 0
lowerback 11.1951 0.858321 0.248432
upperback 5.23904 1.91607 6.4101
thorax -0.999985 1.14828 6.3192
lowerneck -4.36659 -15.8217 -6.11842
upperneck 12.1627 -21.3725 6.43138
head 5.76799 -10.2723 1.35272
lclavicle 6.37275e-14 3.77012e-14 0
lhumerus -42.9065 -19.5449 105.257
lradius 58.7975 0 0
lwrist 23.504 0 0
lhand -22.12 -5.10096 0
lfingers 7.12502 0 0
lthumb 4.29294 24.8349 0
rclavicle 6.37275e-14 3.77012e-14 0
rhumerus 16.0712 12.0113 -82.8333
rradius 137.452 0 0
rwrist -49.8103 0 0
rhand -29.8812 -24.4136 0
rfingers 7.12502 0 0
rthumb -3.20252 -774.356 0
547
root 7.4432 15.0987 -3.81011 -175.646 58.4803 -179.858
lfemur -27.039 -5.30455 -20.1601
ltibia 70.889 0 0
lfoot -35.0328 2.41069 0
ltoes -4.79988 0 0
rfemur -48.0993 -5.7408 0.401289
rtibia 50.9399 0 0
rfoot 1.72519 5.41252 0
rtoes -40.0042 0 0
lowerback 11.0502 0.804764 0.167921
upperback 5.14407 1.81942 6.31405
thorax -1.00898 1.09437 6.27373
lowerneck -4.39674 -15.7432 -6.04904
upperneck 12.0929 -21.2677 6.38776
head 5.73306 -10.2242 1.3427
lclavicle 6.17493e-14 3.60722e-14 0
lhumerus -42.8597 -19.4344 104.875
lradius 58.6798 0 0
lwrist 23.4603 0 0
lhand -22.0926 -5.07721 0
lfingers 7.12502 0 0
lthumb 4.31937 24.8581 0
rclavicle 6.17493e-14 3.60722e-14 0
rhumerus 16.4998 12.1315 -82.5264
rradius 137.33 0 0
rwrist -49.6658 0 0
rhand -29.7483 -24.3155 0
rfingers 7.12502 0 0
rthumb -3.07419 -774.259 0
